<?xml version="1.0" encoding="UTF-8"?>
<svg version="1.1" xmlns="http://www.w3.org/2000/svg" width="1500" height="1500">
<path d="M0 0 C0.89394182 -0.00701159 1.78788364 -0.01402317 2.70891461 -0.02124723 C5.72625876 -0.03874704 8.74233827 -0.02041492 11.75966501 -0.00245988 C13.94522787 -0.00767238 16.13078642 -0.01507624 18.31633526 -0.02448171 C24.36147268 -0.04406186 30.4062141 -0.03224531 36.45134551 -0.01559195 C42.3369636 -0.00426662 48.22250215 -0.01644832 54.10811298 -0.0279772 C66.29732806 -0.0510036 78.48643895 -0.05021442 90.67566347 -0.03657281 C103.0322282 -0.02282805 115.38872431 -0.01990553 127.74529314 -0.03025949 C128.91492623 -0.03122828 128.91492623 -0.03122828 130.10818827 -0.03221665 C133.28388461 -0.03488293 136.45958088 -0.03762646 139.63527707 -0.04046803 C169.23192606 -0.06693213 198.82852903 -0.06870054 228.42518473 -0.05473077 C229.7413965 -0.05410981 229.7413965 -0.05410981 231.0841984 -0.0534763 C232.40250638 -0.05285432 232.40250638 -0.05285432 233.74744685 -0.05221979 C260.49972205 -0.03961463 287.25197823 -0.0363419 314.00425577 -0.04233301 C315.79422366 -0.0427204 317.58419155 -0.04310618 319.37415944 -0.04349036 C326.56691228 -0.04504263 333.75966511 -0.04663596 340.95241793 -0.04828918 C361.06037747 -0.0528747 381.16833708 -0.05572735 401.27629709 -0.05721986 C402.6499137 -0.05732221 402.6499137 -0.05732221 404.05128014 -0.05742662 C433.24020573 -0.05947365 462.42912468 -0.05383521 491.61804819 -0.04297197 C492.56506194 -0.04262072 493.5120757 -0.04226948 494.48778684 -0.04190759 C509.86763884 -0.03618253 525.2474907 -0.03008537 540.62734255 -0.02395672 C601.62940755 0.00032582 662.63141769 -0.00080122 723.63348246 -0.02510965 C739.00548913 -0.03121537 754.37749582 -0.03727053 769.74950266 -0.04297197 C770.69595401 -0.04332421 771.64240536 -0.04367645 772.61753706 -0.04403937 C801.7754435 -0.05481682 830.93334538 -0.05939232 860.09125376 -0.05721986 C861.46386756 -0.05711798 861.46386756 -0.05711798 862.86421093 -0.05701404 C882.94965822 -0.05545179 903.03510503 -0.05228389 923.12055184 -0.04766735 C930.30695691 -0.04602157 937.493362 -0.04445618 944.67976709 -0.04291379 C946.46763301 -0.04252685 948.25549892 -0.0421332 950.04336483 -0.04173281 C976.7900354 -0.03575955 1003.53668455 -0.04085734 1030.28335245 -0.0534763 C1031.59956422 -0.05409726 1031.59956422 -0.05409726 1032.94236612 -0.05473077 C1033.81822899 -0.05514418 1034.69409186 -0.0555576 1035.59649603 -0.05598354 C1065.10601758 -0.06975986 1094.61548387 -0.06473175 1124.1249975 -0.03832705 C1127.29075084 -0.03556516 1130.45650424 -0.03288165 1133.62225771 -0.03025949 C1134.39921163 -0.02960846 1135.17616555 -0.02895742 1135.97666352 -0.02828666 C1148.30248387 -0.01840663 1160.62823576 -0.02531005 1172.95404995 -0.03910452 C1185.0602243 -0.05229838 1197.1662826 -0.04774792 1209.27244216 -0.02403408 C1215.75422843 -0.01207472 1222.23575376 -0.00820774 1228.71753234 -0.02606399 C1234.60486192 -0.04211823 1240.49169714 -0.03549656 1246.37899011 -0.01016069 C1248.50450004 -0.00509142 1250.63005017 -0.00854242 1252.75552852 -0.02119038 C1255.62681226 -0.03707466 1258.49634989 -0.02252011 1261.36755085 0 C1262.19760073 -0.01195371 1263.02765062 -0.02390742 1263.88285353 -0.03622337 C1268.16785866 0.03271686 1269.72118047 0.25794407 1273.1954641 3.02780107 C1275.26059148 5.72715298 1275.81031897 6.77964868 1275.81869364 10.10465109 C1275.83279276 10.97095648 1275.84689188 11.83726187 1275.86141825 12.72981894 C1275.85129709 13.6671134 1275.84117594 14.60440787 1275.83074808 15.5701052 C1275.83950968 16.56742163 1275.84827127 17.56473807 1275.85729837 18.59227622 C1275.87928594 21.88546002 1275.86474106 25.17729861 1275.84783792 28.47049582 C1275.85120622 30.76065957 1275.85605895 33.05082158 1275.86233377 35.34097922 C1275.86970428 40.13937022 1275.85899328 44.93729567 1275.83563089 49.73563254 C1275.80714373 55.8863162 1275.82354665 62.03590901 1275.85349321 68.18655264 C1275.87156096 72.91522054 1275.8658104 77.64362982 1275.85285425 82.37230551 C1275.84951883 84.64011892 1275.85361206 86.90795581 1275.86525202 89.17574179 C1275.87795143 92.34558933 1275.85859458 95.51367049 1275.83074808 98.68338645 C1275.84592981 100.08932814 1275.84592981 100.08932814 1275.86141825 101.5236727 C1275.84731913 102.38997809 1275.83322001 103.25628348 1275.81869364 104.14884055 C1275.81586595 105.27152209 1275.81586595 105.27152209 1275.81298113 106.41688406 C1274.81204346 109.93232242 1273.02196602 111.36401113 1270.18377542 113.62674582 C1267.24330618 114.35103092 1264.38412087 114.29693385 1261.36755085 114.25349164 C1260.02663812 114.26400902 1260.02663812 114.26400902 1258.65863624 114.27473887 C1255.64129209 114.29223868 1252.62521258 114.27390656 1249.60788584 114.25595152 C1247.42232298 114.26116402 1245.23676443 114.26856788 1243.05121559 114.27797335 C1237.00607817 114.2975535 1230.96133675 114.28573695 1224.91620534 114.26908359 C1219.03058725 114.25775826 1213.1450487 114.26993996 1207.25943787 114.28146884 C1195.07022279 114.30449524 1182.8811119 114.30370606 1170.69188738 114.29006445 C1158.33532265 114.27631969 1145.97882654 114.27339717 1133.62225771 114.28375113 C1132.84250232 114.28439699 1132.06274692 114.28504286 1131.25936258 114.28570829 C1128.08366624 114.28837457 1124.90796997 114.2911181 1121.73227378 114.29395967 C1092.13562479 114.32042377 1062.53902182 114.32219218 1032.94236612 114.30822241 C1032.06489161 114.30780844 1031.1874171 114.30739446 1030.28335245 114.30696794 C1029.40448046 114.30655329 1028.52560847 114.30613864 1027.620104 114.30571143 C1000.8678288 114.29310627 974.11557262 114.28983354 947.36329508 114.29582465 C945.57332719 114.29621204 943.7833593 114.29659782 941.99339141 114.296982 C934.80063857 114.29853427 927.60788574 114.3001276 920.41513292 114.30178082 C900.30717338 114.30636634 880.19921377 114.30921899 860.09125376 114.3107115 C859.17550935 114.31077973 858.25976495 114.31084796 857.31627071 114.31091826 C828.12734512 114.31296529 798.93842617 114.30732685 769.74950266 114.29646361 C768.80248891 114.29611236 767.85547515 114.29576112 766.87976401 114.29539923 C751.49991201 114.28967417 736.12006015 114.28357701 720.7402083 114.27744836 C659.7381433 114.25316582 598.73613316 114.25429286 537.73406839 114.27860129 C522.36206172 114.28470701 506.99005503 114.29076217 491.61804819 114.29646361 C490.67159684 114.29681585 489.72514549 114.29716809 488.75001379 114.29753101 C459.59210735 114.30830846 430.43420547 114.31288396 401.27629709 114.3107115 C400.36122122 114.31064358 399.44614536 114.31057566 398.50333992 114.31050568 C378.41789263 114.30894343 358.33244582 114.30577553 338.24699901 114.30115899 C331.06059394 114.29951321 323.87418885 114.29794782 316.68778376 114.29640543 C314.89991784 114.29601849 313.11205193 114.29562484 311.32418602 114.29522445 C284.57751545 114.28925119 257.8308663 114.29434898 231.0841984 114.30696794 C230.20672389 114.30738191 229.32924938 114.30779589 228.42518473 114.30822241 C227.54932186 114.30863582 226.67345899 114.30904924 225.77105482 114.30947518 C196.26153327 114.3232515 166.75206698 114.31822339 137.24255335 114.29181869 C134.07680001 114.2890568 130.91104661 114.28637329 127.74529314 114.28375113 C126.57986226 114.28277458 126.57986226 114.28277458 125.39088733 114.2817783 C113.06506698 114.27189827 100.73931509 114.27880169 88.4135009 114.29259616 C76.30732655 114.30579002 64.20126825 114.30123956 52.09510869 114.27752572 C45.61332242 114.26556636 39.13179708 114.26169938 32.65001851 114.27955563 C26.76268893 114.29560987 20.87585371 114.2889882 14.98856074 114.26365233 C12.86305081 114.25858306 10.73750068 114.26203406 8.61202233 114.27468202 C5.74073859 114.2905663 2.87120096 114.27601175 0 114.25349164 C-0.83004988 114.26544535 -1.66009977 114.27739906 -2.51530268 114.28971501 C-6.80030781 114.22077478 -8.35362962 113.99554757 -11.82791325 111.22569057 C-13.89304063 108.52633866 -14.44276812 107.47384296 -14.45114279 104.14884055 C-14.46524191 103.28253516 -14.47934103 102.41622977 -14.4938674 101.5236727 C-14.48374624 100.58637824 -14.47362509 99.64908377 -14.46319723 98.68338645 C-14.47195883 97.68607001 -14.48072042 96.68875357 -14.48974752 95.66121542 C-14.51173509 92.36803162 -14.49719021 89.07619303 -14.48028708 85.78299582 C-14.48365537 83.49283207 -14.4885081 81.20267006 -14.49478292 78.91251242 C-14.50215343 74.11412142 -14.49144243 69.31619597 -14.46808004 64.5178591 C-14.43959288 58.36717544 -14.4559958 52.21758263 -14.48594236 46.066939 C-14.50401011 41.3382711 -14.49825955 36.60986182 -14.4853034 31.88118613 C-14.48196798 29.61337272 -14.48606121 27.34553583 -14.49770117 25.07774985 C-14.51040058 21.90790231 -14.49104373 18.73982115 -14.46319723 15.5701052 C-14.47331839 14.63281073 -14.48343954 13.69551627 -14.4938674 12.72981894 C-14.47976828 11.86351355 -14.46566916 10.99720816 -14.45114279 10.10465109 C-14.44925766 9.35619673 -14.44737253 8.60774237 -14.44543028 7.83660758 C-12.32325063 0.38320465 -6.57363282 -0.09466817 0 0 Z " fill="#A24EBF" transform="translate(119.81622457504272,1132.3732541799545)"/>
<path d="M0 0 C0.89394182 -0.00701159 1.78788364 -0.01402317 2.70891461 -0.02124723 C5.72625876 -0.03874704 8.74233827 -0.02041492 11.75966501 -0.00245988 C13.94522787 -0.00767238 16.13078642 -0.01507624 18.31633526 -0.02448171 C24.36147268 -0.04406186 30.4062141 -0.03224531 36.45134551 -0.01559195 C42.3369636 -0.00426662 48.22250215 -0.01644832 54.10811298 -0.0279772 C66.29732806 -0.0510036 78.48643895 -0.05021442 90.67566347 -0.03657281 C103.0322282 -0.02282805 115.38872431 -0.01990553 127.74529314 -0.03025949 C128.91492623 -0.03122828 128.91492623 -0.03122828 130.10818827 -0.03221665 C133.28388461 -0.03488293 136.45958088 -0.03762646 139.63527707 -0.04046803 C169.23192606 -0.06693213 198.82852903 -0.06870054 228.42518473 -0.05473077 C229.7413965 -0.05410981 229.7413965 -0.05410981 231.0841984 -0.0534763 C232.40250638 -0.05285432 232.40250638 -0.05285432 233.74744685 -0.05221979 C260.49972205 -0.03961463 287.25197823 -0.0363419 314.00425577 -0.04233301 C315.79422366 -0.0427204 317.58419155 -0.04310618 319.37415944 -0.04349036 C326.56691228 -0.04504263 333.75966511 -0.04663596 340.95241793 -0.04828918 C361.06037747 -0.0528747 381.16833708 -0.05572735 401.27629709 -0.05721986 C402.6499137 -0.05732221 402.6499137 -0.05732221 404.05128014 -0.05742662 C433.24020573 -0.05947365 462.42912468 -0.05383521 491.61804819 -0.04297197 C492.56506194 -0.04262072 493.5120757 -0.04226948 494.48778684 -0.04190759 C509.86763884 -0.03618253 525.2474907 -0.03008537 540.62734255 -0.02395672 C601.62940755 0.00032582 662.63141769 -0.00080122 723.63348246 -0.02510965 C739.00548913 -0.03121537 754.37749582 -0.03727053 769.74950266 -0.04297197 C770.69595401 -0.04332421 771.64240536 -0.04367645 772.61753706 -0.04403937 C801.7754435 -0.05481682 830.93334538 -0.05939232 860.09125376 -0.05721986 C861.46386756 -0.05711798 861.46386756 -0.05711798 862.86421093 -0.05701404 C882.94965822 -0.05545179 903.03510503 -0.05228389 923.12055184 -0.04766735 C930.30695691 -0.04602157 937.493362 -0.04445618 944.67976709 -0.04291379 C946.46763301 -0.04252685 948.25549892 -0.0421332 950.04336483 -0.04173281 C976.7900354 -0.03575955 1003.53668455 -0.04085734 1030.28335245 -0.0534763 C1031.59956422 -0.05409726 1031.59956422 -0.05409726 1032.94236612 -0.05473077 C1033.81822899 -0.05514418 1034.69409186 -0.0555576 1035.59649603 -0.05598354 C1065.10601758 -0.06975986 1094.61548387 -0.06473175 1124.1249975 -0.03832705 C1127.29075084 -0.03556516 1130.45650424 -0.03288165 1133.62225771 -0.03025949 C1134.39921163 -0.02960846 1135.17616555 -0.02895742 1135.97666352 -0.02828666 C1148.30248387 -0.01840663 1160.62823576 -0.02531005 1172.95404995 -0.03910452 C1185.0602243 -0.05229838 1197.1662826 -0.04774792 1209.27244216 -0.02403408 C1215.75422843 -0.01207472 1222.23575376 -0.00820774 1228.71753234 -0.02606399 C1234.60486192 -0.04211823 1240.49169714 -0.03549656 1246.37899011 -0.01016069 C1248.50450004 -0.00509142 1250.63005017 -0.00854242 1252.75552852 -0.02119038 C1255.62681226 -0.03707466 1258.49634989 -0.02252011 1261.36755085 0 C1262.19760073 -0.01195371 1263.02765062 -0.02390742 1263.88285353 -0.03622337 C1268.16785866 0.03271686 1269.72118047 0.25794407 1273.1954641 3.02780107 C1275.26059148 5.72715298 1275.81031897 6.77964868 1275.81869364 10.10465109 C1275.83279276 10.97095648 1275.84689188 11.83726187 1275.86141825 12.72981894 C1275.85129709 13.6671134 1275.84117594 14.60440787 1275.83074808 15.5701052 C1275.83950968 16.56742163 1275.84827127 17.56473807 1275.85729837 18.59227622 C1275.87928594 21.88546002 1275.86474106 25.17729861 1275.84783792 28.47049582 C1275.85120622 30.76065957 1275.85605895 33.05082158 1275.86233377 35.34097922 C1275.86970428 40.13937022 1275.85899328 44.93729567 1275.83563089 49.73563254 C1275.80714373 55.8863162 1275.82354665 62.03590901 1275.85349321 68.18655264 C1275.87156096 72.91522054 1275.8658104 77.64362982 1275.85285425 82.37230551 C1275.84951883 84.64011892 1275.85361206 86.90795581 1275.86525202 89.17574179 C1275.87795143 92.34558933 1275.85859458 95.51367049 1275.83074808 98.68338645 C1275.84592981 100.08932814 1275.84592981 100.08932814 1275.86141825 101.5236727 C1275.84731913 102.38997809 1275.83322001 103.25628348 1275.81869364 104.14884055 C1275.81586595 105.27152209 1275.81586595 105.27152209 1275.81298113 106.41688406 C1274.81204346 109.93232242 1273.02196602 111.36401113 1270.18377542 113.62674582 C1267.24330618 114.35103092 1264.38412087 114.29693385 1261.36755085 114.25349164 C1260.02663812 114.26400902 1260.02663812 114.26400902 1258.65863624 114.27473887 C1255.64129209 114.29223868 1252.62521258 114.27390656 1249.60788584 114.25595152 C1247.42232298 114.26116402 1245.23676443 114.26856788 1243.05121559 114.27797335 C1237.00607817 114.2975535 1230.96133675 114.28573695 1224.91620534 114.26908359 C1219.03058725 114.25775826 1213.1450487 114.26993996 1207.25943787 114.28146884 C1195.07022279 114.30449524 1182.8811119 114.30370606 1170.69188738 114.29006445 C1158.33532265 114.27631969 1145.97882654 114.27339717 1133.62225771 114.28375113 C1132.84250232 114.28439699 1132.06274692 114.28504286 1131.25936258 114.28570829 C1128.08366624 114.28837457 1124.90796997 114.2911181 1121.73227378 114.29395967 C1092.13562479 114.32042377 1062.53902182 114.32219218 1032.94236612 114.30822241 C1032.06489161 114.30780844 1031.1874171 114.30739446 1030.28335245 114.30696794 C1029.40448046 114.30655329 1028.52560847 114.30613864 1027.620104 114.30571143 C1000.8678288 114.29310627 974.11557262 114.28983354 947.36329508 114.29582465 C945.57332719 114.29621204 943.7833593 114.29659782 941.99339141 114.296982 C934.80063857 114.29853427 927.60788574 114.3001276 920.41513292 114.30178082 C900.30717338 114.30636634 880.19921377 114.30921899 860.09125376 114.3107115 C859.17550935 114.31077973 858.25976495 114.31084796 857.31627071 114.31091826 C828.12734512 114.31296529 798.93842617 114.30732685 769.74950266 114.29646361 C768.80248891 114.29611236 767.85547515 114.29576112 766.87976401 114.29539923 C751.49991201 114.28967417 736.12006015 114.28357701 720.7402083 114.27744836 C659.7381433 114.25316582 598.73613316 114.25429286 537.73406839 114.27860129 C522.36206172 114.28470701 506.99005503 114.29076217 491.61804819 114.29646361 C490.67159684 114.29681585 489.72514549 114.29716809 488.75001379 114.29753101 C459.59210735 114.30830846 430.43420547 114.31288396 401.27629709 114.3107115 C400.36122122 114.31064358 399.44614536 114.31057566 398.50333992 114.31050568 C378.41789263 114.30894343 358.33244582 114.30577553 338.24699901 114.30115899 C331.06059394 114.29951321 323.87418885 114.29794782 316.68778376 114.29640543 C314.89991784 114.29601849 313.11205193 114.29562484 311.32418602 114.29522445 C284.57751545 114.28925119 257.8308663 114.29434898 231.0841984 114.30696794 C230.20672389 114.30738191 229.32924938 114.30779589 228.42518473 114.30822241 C227.54932186 114.30863582 226.67345899 114.30904924 225.77105482 114.30947518 C196.26153327 114.3232515 166.75206698 114.31822339 137.24255335 114.29181869 C134.07680001 114.2890568 130.91104661 114.28637329 127.74529314 114.28375113 C126.57986226 114.28277458 126.57986226 114.28277458 125.39088733 114.2817783 C113.06506698 114.27189827 100.73931509 114.27880169 88.4135009 114.29259616 C76.30732655 114.30579002 64.20126825 114.30123956 52.09510869 114.27752572 C45.61332242 114.26556636 39.13179708 114.26169938 32.65001851 114.27955563 C26.76268893 114.29560987 20.87585371 114.2889882 14.98856074 114.26365233 C12.86305081 114.25858306 10.73750068 114.26203406 8.61202233 114.27468202 C5.74073859 114.2905663 2.87120096 114.27601175 0 114.25349164 C-0.83004988 114.26544535 -1.66009977 114.27739906 -2.51530268 114.28971501 C-6.80030781 114.22077478 -8.35362962 113.99554757 -11.82791325 111.22569057 C-13.89304063 108.52633866 -14.44276812 107.47384296 -14.45114279 104.14884055 C-14.46524191 103.28253516 -14.47934103 102.41622977 -14.4938674 101.5236727 C-14.48374624 100.58637824 -14.47362509 99.64908377 -14.46319723 98.68338645 C-14.47195883 97.68607001 -14.48072042 96.68875357 -14.48974752 95.66121542 C-14.51173509 92.36803162 -14.49719021 89.07619303 -14.48028708 85.78299582 C-14.48365537 83.49283207 -14.4885081 81.20267006 -14.49478292 78.91251242 C-14.50215343 74.11412142 -14.49144243 69.31619597 -14.46808004 64.5178591 C-14.43959288 58.36717544 -14.4559958 52.21758263 -14.48594236 46.066939 C-14.50401011 41.3382711 -14.49825955 36.60986182 -14.4853034 31.88118613 C-14.48196798 29.61337272 -14.48606121 27.34553583 -14.49770117 25.07774985 C-14.51040058 21.90790231 -14.49104373 18.73982115 -14.46319723 15.5701052 C-14.47331839 14.63281073 -14.48343954 13.69551627 -14.4938674 12.72981894 C-14.47976828 11.86351355 -14.46566916 10.99720816 -14.45114279 10.10465109 C-14.44925766 9.35619673 -14.44737253 8.60774237 -14.44543028 7.83660758 C-12.32325063 0.38320465 -6.57363282 -0.09466817 0 0 Z " fill="#D3A6DD" transform="translate(119.81622457504272,1004.3732541799545)"/>
<path d="M0 0 C0.89394182 -0.00701159 1.78788364 -0.01402317 2.70891461 -0.02124723 C5.72625876 -0.03874704 8.74233827 -0.02041492 11.75966501 -0.00245988 C13.94522787 -0.00767238 16.13078642 -0.01507624 18.31633526 -0.02448171 C24.36147268 -0.04406186 30.4062141 -0.03224531 36.45134551 -0.01559195 C42.3369636 -0.00426662 48.22250215 -0.01644832 54.10811298 -0.0279772 C66.29732806 -0.0510036 78.48643895 -0.05021442 90.67566347 -0.03657281 C103.0322282 -0.02282805 115.38872431 -0.01990553 127.74529314 -0.03025949 C128.91492623 -0.03122828 128.91492623 -0.03122828 130.10818827 -0.03221665 C133.28388461 -0.03488293 136.45958088 -0.03762646 139.63527707 -0.04046803 C169.23192606 -0.06693213 198.82852903 -0.06870054 228.42518473 -0.05473077 C229.7413965 -0.05410981 229.7413965 -0.05410981 231.0841984 -0.0534763 C232.40250638 -0.05285432 232.40250638 -0.05285432 233.74744685 -0.05221979 C260.49972205 -0.03961463 287.25197823 -0.0363419 314.00425577 -0.04233301 C315.79422366 -0.0427204 317.58419155 -0.04310618 319.37415944 -0.04349036 C326.56691228 -0.04504263 333.75966511 -0.04663596 340.95241793 -0.04828918 C361.06037747 -0.0528747 381.16833708 -0.05572735 401.27629709 -0.05721986 C402.6499137 -0.05732221 402.6499137 -0.05732221 404.05128014 -0.05742662 C433.24020573 -0.05947365 462.42912468 -0.05383521 491.61804819 -0.04297197 C492.56506194 -0.04262072 493.5120757 -0.04226948 494.48778684 -0.04190759 C509.86763884 -0.03618253 525.2474907 -0.03008537 540.62734255 -0.02395672 C601.62940755 0.00032582 662.63141769 -0.00080122 723.63348246 -0.02510965 C739.00548913 -0.03121537 754.37749582 -0.03727053 769.74950266 -0.04297197 C770.69595401 -0.04332421 771.64240536 -0.04367645 772.61753706 -0.04403937 C801.7754435 -0.05481682 830.93334538 -0.05939232 860.09125376 -0.05721986 C861.46386756 -0.05711798 861.46386756 -0.05711798 862.86421093 -0.05701404 C882.94965822 -0.05545179 903.03510503 -0.05228389 923.12055184 -0.04766735 C930.30695691 -0.04602157 937.493362 -0.04445618 944.67976709 -0.04291379 C946.46763301 -0.04252685 948.25549892 -0.0421332 950.04336483 -0.04173281 C976.7900354 -0.03575955 1003.53668455 -0.04085734 1030.28335245 -0.0534763 C1031.59956422 -0.05409726 1031.59956422 -0.05409726 1032.94236612 -0.05473077 C1033.81822899 -0.05514418 1034.69409186 -0.0555576 1035.59649603 -0.05598354 C1065.10601758 -0.06975986 1094.61548387 -0.06473175 1124.1249975 -0.03832705 C1127.29075084 -0.03556516 1130.45650424 -0.03288165 1133.62225771 -0.03025949 C1134.39921163 -0.02960846 1135.17616555 -0.02895742 1135.97666352 -0.02828666 C1148.30248387 -0.01840663 1160.62823576 -0.02531005 1172.95404995 -0.03910452 C1185.0602243 -0.05229838 1197.1662826 -0.04774792 1209.27244216 -0.02403408 C1215.75422843 -0.01207472 1222.23575376 -0.00820774 1228.71753234 -0.02606399 C1234.60486192 -0.04211823 1240.49169714 -0.03549656 1246.37899011 -0.01016069 C1248.50450004 -0.00509142 1250.63005017 -0.00854242 1252.75552852 -0.02119038 C1255.62681226 -0.03707466 1258.49634989 -0.02252011 1261.36755085 0 C1262.19760073 -0.01195371 1263.02765062 -0.02390742 1263.88285353 -0.03622337 C1268.16785866 0.03271686 1269.72118047 0.25794407 1273.1954641 3.02780107 C1275.26059148 5.72715298 1275.81031897 6.77964868 1275.81869364 10.10465109 C1275.83279276 10.97095648 1275.84689188 11.83726187 1275.86141825 12.72981894 C1275.85129709 13.6671134 1275.84117594 14.60440787 1275.83074808 15.5701052 C1275.83950968 16.56742163 1275.84827127 17.56473807 1275.85729837 18.59227622 C1275.87928594 21.88546002 1275.86474106 25.17729861 1275.84783792 28.47049582 C1275.85120622 30.76065957 1275.85605895 33.05082158 1275.86233377 35.34097922 C1275.86970428 40.13937022 1275.85899328 44.93729567 1275.83563089 49.73563254 C1275.80714373 55.8863162 1275.82354665 62.03590901 1275.85349321 68.18655264 C1275.87156096 72.91522054 1275.8658104 77.64362982 1275.85285425 82.37230551 C1275.84951883 84.64011892 1275.85361206 86.90795581 1275.86525202 89.17574179 C1275.87795143 92.34558933 1275.85859458 95.51367049 1275.83074808 98.68338645 C1275.84592981 100.08932814 1275.84592981 100.08932814 1275.86141825 101.5236727 C1275.84731913 102.38997809 1275.83322001 103.25628348 1275.81869364 104.14884055 C1275.81586595 105.27152209 1275.81586595 105.27152209 1275.81298113 106.41688406 C1274.81204346 109.93232242 1273.02196602 111.36401113 1270.18377542 113.62674582 C1267.24330618 114.35103092 1264.38412087 114.29693385 1261.36755085 114.25349164 C1260.02663812 114.26400902 1260.02663812 114.26400902 1258.65863624 114.27473887 C1255.64129209 114.29223868 1252.62521258 114.27390656 1249.60788584 114.25595152 C1247.42232298 114.26116402 1245.23676443 114.26856788 1243.05121559 114.27797335 C1237.00607817 114.2975535 1230.96133675 114.28573695 1224.91620534 114.26908359 C1219.03058725 114.25775826 1213.1450487 114.26993996 1207.25943787 114.28146884 C1195.07022279 114.30449524 1182.8811119 114.30370606 1170.69188738 114.29006445 C1158.33532265 114.27631969 1145.97882654 114.27339717 1133.62225771 114.28375113 C1132.84250232 114.28439699 1132.06274692 114.28504286 1131.25936258 114.28570829 C1128.08366624 114.28837457 1124.90796997 114.2911181 1121.73227378 114.29395967 C1092.13562479 114.32042377 1062.53902182 114.32219218 1032.94236612 114.30822241 C1032.06489161 114.30780844 1031.1874171 114.30739446 1030.28335245 114.30696794 C1029.40448046 114.30655329 1028.52560847 114.30613864 1027.620104 114.30571143 C1000.8678288 114.29310627 974.11557262 114.28983354 947.36329508 114.29582465 C945.57332719 114.29621204 943.7833593 114.29659782 941.99339141 114.296982 C934.80063857 114.29853427 927.60788574 114.3001276 920.41513292 114.30178082 C900.30717338 114.30636634 880.19921377 114.30921899 860.09125376 114.3107115 C859.17550935 114.31077973 858.25976495 114.31084796 857.31627071 114.31091826 C828.12734512 114.31296529 798.93842617 114.30732685 769.74950266 114.29646361 C768.80248891 114.29611236 767.85547515 114.29576112 766.87976401 114.29539923 C751.49991201 114.28967417 736.12006015 114.28357701 720.7402083 114.27744836 C659.7381433 114.25316582 598.73613316 114.25429286 537.73406839 114.27860129 C522.36206172 114.28470701 506.99005503 114.29076217 491.61804819 114.29646361 C490.67159684 114.29681585 489.72514549 114.29716809 488.75001379 114.29753101 C459.59210735 114.30830846 430.43420547 114.31288396 401.27629709 114.3107115 C400.36122122 114.31064358 399.44614536 114.31057566 398.50333992 114.31050568 C378.41789263 114.30894343 358.33244582 114.30577553 338.24699901 114.30115899 C331.06059394 114.29951321 323.87418885 114.29794782 316.68778376 114.29640543 C314.89991784 114.29601849 313.11205193 114.29562484 311.32418602 114.29522445 C284.57751545 114.28925119 257.8308663 114.29434898 231.0841984 114.30696794 C230.20672389 114.30738191 229.32924938 114.30779589 228.42518473 114.30822241 C227.54932186 114.30863582 226.67345899 114.30904924 225.77105482 114.30947518 C196.26153327 114.3232515 166.75206698 114.31822339 137.24255335 114.29181869 C134.07680001 114.2890568 130.91104661 114.28637329 127.74529314 114.28375113 C126.57986226 114.28277458 126.57986226 114.28277458 125.39088733 114.2817783 C113.06506698 114.27189827 100.73931509 114.27880169 88.4135009 114.29259616 C76.30732655 114.30579002 64.20126825 114.30123956 52.09510869 114.27752572 C45.61332242 114.26556636 39.13179708 114.26169938 32.65001851 114.27955563 C26.76268893 114.29560987 20.87585371 114.2889882 14.98856074 114.26365233 C12.86305081 114.25858306 10.73750068 114.26203406 8.61202233 114.27468202 C5.74073859 114.2905663 2.87120096 114.27601175 0 114.25349164 C-0.83004988 114.26544535 -1.66009977 114.27739906 -2.51530268 114.28971501 C-6.80030781 114.22077478 -8.35362962 113.99554757 -11.82791325 111.22569057 C-13.89304063 108.52633866 -14.44276812 107.47384296 -14.45114279 104.14884055 C-14.46524191 103.28253516 -14.47934103 102.41622977 -14.4938674 101.5236727 C-14.48374624 100.58637824 -14.47362509 99.64908377 -14.46319723 98.68338645 C-14.47195883 97.68607001 -14.48072042 96.68875357 -14.48974752 95.66121542 C-14.51173509 92.36803162 -14.49719021 89.07619303 -14.48028708 85.78299582 C-14.48365537 83.49283207 -14.4885081 81.20267006 -14.49478292 78.91251242 C-14.50215343 74.11412142 -14.49144243 69.31619597 -14.46808004 64.5178591 C-14.43959288 58.36717544 -14.4559958 52.21758263 -14.48594236 46.066939 C-14.50401011 41.3382711 -14.49825955 36.60986182 -14.4853034 31.88118613 C-14.48196798 29.61337272 -14.48606121 27.34553583 -14.49770117 25.07774985 C-14.51040058 21.90790231 -14.49104373 18.73982115 -14.46319723 15.5701052 C-14.47331839 14.63281073 -14.48343954 13.69551627 -14.4938674 12.72981894 C-14.47976828 11.86351355 -14.46566916 10.99720816 -14.45114279 10.10465109 C-14.44925766 9.35619673 -14.44737253 8.60774237 -14.44543028 7.83660758 C-12.32325063 0.38320465 -6.57363282 -0.09466817 0 0 Z " fill="#FDE6FA" transform="translate(119.81622457504272,381.37325417995453)"/>
<path d="M0 0 C1.57659439 -0.01090081 1.57659439 -0.01090081 3.18503916 -0.02202183 C6.73077867 -0.04036705 10.27544942 -0.02287107 13.82118225 -0.00571251 C16.37931594 -0.01146989 18.93744551 -0.0194084 21.49556637 -0.02934873 C27.06960423 -0.04742866 32.64340009 -0.04684646 38.21744919 -0.03411293 C46.50608883 -0.01522939 54.79452367 -0.024854 63.08316186 -0.04015447 C77.88509056 -0.06651019 92.6869115 -0.06419052 107.4888505 -0.0497599 C120.44207707 -0.03719327 133.39526408 -0.0338934 146.34849548 -0.03987312 C147.20696116 -0.04025505 148.06542685 -0.04063697 148.94990664 -0.04103047 C152.43450122 -0.04258711 155.91909577 -0.0441791 159.4036903 -0.04582929 C192.10691992 -0.06113206 224.8100808 -0.0472447 257.51329981 -0.02034481 C286.58251684 0.0033841 315.65162437 0.00126099 344.72084045 -0.02264977 C377.36338895 -0.04940986 410.0058767 -0.06004689 442.64843464 -0.04458845 C446.12676301 -0.0429848 449.6050914 -0.04142061 453.0834198 -0.03987312 C453.93990348 -0.03947774 454.79638716 -0.03908235 455.67882489 -0.03867498 C468.62545373 -0.03298221 481.57203873 -0.03964905 494.5186615 -0.05227089 C509.23625025 -0.06654754 523.95371416 -0.06303517 538.6712873 -0.03586717 C546.91317613 -0.02115582 555.15479479 -0.02027002 563.39667676 -0.03909804 C569.54069243 -0.05158841 575.68438733 -0.03809939 581.82836354 -0.01422517 C584.32155273 -0.00861396 586.81477786 -0.01153914 589.30794418 -0.02360411 C592.68312656 -0.03869149 596.0568126 -0.02333596 599.43191528 0 C600.41204515 -0.01170583 601.39217502 -0.02341166 602.40200579 -0.03547221 C607.03549663 0.02906748 609.05372314 0.11681624 612.81938493 3.0304147 C614.78279865 5.72079502 615.34264754 6.84021561 615.35087585 10.10711098 C615.36497498 10.97341637 615.3790741 11.83972176 615.39360046 12.73227882 C615.38347931 13.66957329 615.37335815 14.60686775 615.3629303 15.57256508 C615.37169189 16.56988152 615.38045349 17.56719795 615.38948059 18.5947361 C615.41146816 21.88791991 615.39692328 25.1797585 615.38002014 28.4729557 C615.38338844 30.76311946 615.38824116 33.05328147 615.39451599 35.3434391 C615.40188649 40.14183011 615.39117549 44.93975555 615.36781311 49.73809242 C615.33932595 55.88877608 615.35572887 62.03836889 615.38567543 68.18901253 C615.40374318 72.91768043 615.39799262 77.6460897 615.38503647 82.3747654 C615.38170105 84.6425788 615.38579427 86.91041569 615.39743423 89.17820168 C615.41013365 92.34804921 615.3907768 95.51613037 615.3629303 98.68584633 C615.37305145 99.62314079 615.38317261 100.56043526 615.39360046 101.52613258 C615.37950134 102.39243797 615.36540222 103.25874336 615.35087585 104.15130043 C615.34899073 104.89975479 615.3471056 105.64820915 615.34516335 106.41934395 C614.32668567 109.99638538 612.64983754 111.3591803 609.71595764 113.6292057 C606.29187227 114.37276159 602.9246175 114.30012525 599.43191528 114.25841141 C598.38085236 114.26567861 597.32978944 114.27294582 596.24687612 114.28043324 C592.70113661 114.29877846 589.15646586 114.28128248 585.61073303 114.26412392 C583.05259934 114.26988129 580.49446977 114.27781981 577.93634892 114.28776014 C572.36231105 114.30584007 566.78851519 114.30525787 561.21446609 114.29252434 C552.92582645 114.2736408 544.63739161 114.28326541 536.34875342 114.29856587 C521.54682472 114.3249216 506.74500378 114.32260193 491.94306478 114.30817131 C478.98983822 114.29560468 466.0366512 114.29230481 453.0834198 114.29828453 C451.79572128 114.29885742 451.79572128 114.29885742 450.48200864 114.29944188 C446.99741407 114.30099852 443.51281951 114.30259051 440.02822498 114.3042407 C407.32499537 114.31954346 374.62183448 114.30565611 341.91861548 114.27875621 C312.84939844 114.25502731 283.78029091 114.25715041 254.71107483 114.28106117 C222.06852633 114.30782127 189.42603859 114.3184583 156.78348064 114.30299985 C153.30515227 114.30139621 149.82682388 114.29983201 146.34849548 114.29828453 C145.4920118 114.29788914 144.63552812 114.29749376 143.75309039 114.29708639 C130.80646155 114.29139361 117.85987655 114.29806045 104.91325378 114.3106823 C90.19566503 114.32495894 75.47820112 114.32144658 60.76062799 114.29427858 C52.51873915 114.27956722 44.2771205 114.27868143 36.03523852 114.29750945 C29.89122285 114.30999981 23.74752796 114.29651079 17.60355175 114.27263658 C15.11036255 114.26702537 12.61713742 114.26995055 10.1239711 114.28201552 C6.74878873 114.2971029 3.37510268 114.28174736 0 114.25841141 C-1.4701948 114.27597015 -1.4701948 114.27597015 -2.97009051 114.29388362 C-7.60358134 114.22934392 -9.62180786 114.14159516 -13.38746965 111.22799671 C-15.35088336 108.53761639 -15.91073226 107.4181958 -15.91896057 104.15130043 C-15.93305969 103.28499504 -15.94715881 102.41868965 -15.96168518 101.52613258 C-15.95156403 100.58883812 -15.94144287 99.65154366 -15.93101501 98.68584633 C-15.93977661 97.68852989 -15.94853821 96.69121346 -15.95756531 95.66367531 C-15.97955287 92.3704915 -15.96500799 89.07865291 -15.94810486 85.7854557 C-15.95147315 83.49529195 -15.95632588 81.20512994 -15.96260071 78.91497231 C-15.96997121 74.1165813 -15.95926021 69.31865585 -15.93589783 64.52031898 C-15.90741066 58.36963533 -15.92381358 52.22004251 -15.95376015 46.06939888 C-15.97182789 41.34073098 -15.96607733 36.6123217 -15.95312119 31.88364601 C-15.94978576 29.61583261 -15.95387899 27.34799572 -15.96551895 25.08020973 C-15.97821837 21.9103622 -15.95886152 18.74228104 -15.93101501 15.57256508 C-15.94113617 14.63527061 -15.95125732 13.69797615 -15.96168518 12.73227882 C-15.94758606 11.86597343 -15.93348694 10.99966805 -15.91896057 10.10711098 C-15.91707544 9.35865662 -15.91519032 8.61020226 -15.91324806 7.83906746 C-13.61030548 -0.24920116 -7.00332808 -0.08364175 0 0 Z " fill="#D3A6DD" transform="translate(121.28404235839844,877.3707942962646)"/>
<path d="M0 0 C1.57659439 -0.01090081 1.57659439 -0.01090081 3.18503916 -0.02202183 C6.73077867 -0.04036705 10.27544942 -0.02287107 13.82118225 -0.00571251 C16.37931594 -0.01146989 18.93744551 -0.0194084 21.49556637 -0.02934873 C27.06960423 -0.04742866 32.64340009 -0.04684646 38.21744919 -0.03411293 C46.50608883 -0.01522939 54.79452367 -0.024854 63.08316186 -0.04015447 C77.88509056 -0.06651019 92.6869115 -0.06419052 107.4888505 -0.0497599 C120.44207707 -0.03719327 133.39526408 -0.0338934 146.34849548 -0.03987312 C147.20696116 -0.04025505 148.06542685 -0.04063697 148.94990664 -0.04103047 C152.43450122 -0.04258711 155.91909577 -0.0441791 159.4036903 -0.04582929 C192.10691992 -0.06113206 224.8100808 -0.0472447 257.51329981 -0.02034481 C286.58251684 0.0033841 315.65162437 0.00126099 344.72084045 -0.02264977 C377.36338895 -0.04940986 410.0058767 -0.06004689 442.64843464 -0.04458845 C446.12676301 -0.0429848 449.6050914 -0.04142061 453.0834198 -0.03987312 C453.93990348 -0.03947774 454.79638716 -0.03908235 455.67882489 -0.03867498 C468.62545373 -0.03298221 481.57203873 -0.03964905 494.5186615 -0.05227089 C509.23625025 -0.06654754 523.95371416 -0.06303517 538.6712873 -0.03586717 C546.91317613 -0.02115582 555.15479479 -0.02027002 563.39667676 -0.03909804 C569.54069243 -0.05158841 575.68438733 -0.03809939 581.82836354 -0.01422517 C584.32155273 -0.00861396 586.81477786 -0.01153914 589.30794418 -0.02360411 C592.68312656 -0.03869149 596.0568126 -0.02333596 599.43191528 0 C600.41204515 -0.01170583 601.39217502 -0.02341166 602.40200579 -0.03547221 C607.03549663 0.02906748 609.05372314 0.11681624 612.81938493 3.0304147 C614.78279865 5.72079502 615.34264754 6.84021561 615.35087585 10.10711098 C615.36497498 10.97341637 615.3790741 11.83972176 615.39360046 12.73227882 C615.38347931 13.66957329 615.37335815 14.60686775 615.3629303 15.57256508 C615.37169189 16.56988152 615.38045349 17.56719795 615.38948059 18.5947361 C615.41146816 21.88791991 615.39692328 25.1797585 615.38002014 28.4729557 C615.38338844 30.76311946 615.38824116 33.05328147 615.39451599 35.3434391 C615.40188649 40.14183011 615.39117549 44.93975555 615.36781311 49.73809242 C615.33932595 55.88877608 615.35572887 62.03836889 615.38567543 68.18901253 C615.40374318 72.91768043 615.39799262 77.6460897 615.38503647 82.3747654 C615.38170105 84.6425788 615.38579427 86.91041569 615.39743423 89.17820168 C615.41013365 92.34804921 615.3907768 95.51613037 615.3629303 98.68584633 C615.37305145 99.62314079 615.38317261 100.56043526 615.39360046 101.52613258 C615.37950134 102.39243797 615.36540222 103.25874336 615.35087585 104.15130043 C615.34899073 104.89975479 615.3471056 105.64820915 615.34516335 106.41934395 C614.32668567 109.99638538 612.64983754 111.3591803 609.71595764 113.6292057 C606.29187227 114.37276159 602.9246175 114.30012525 599.43191528 114.25841141 C598.38085236 114.26567861 597.32978944 114.27294582 596.24687612 114.28043324 C592.70113661 114.29877846 589.15646586 114.28128248 585.61073303 114.26412392 C583.05259934 114.26988129 580.49446977 114.27781981 577.93634892 114.28776014 C572.36231105 114.30584007 566.78851519 114.30525787 561.21446609 114.29252434 C552.92582645 114.2736408 544.63739161 114.28326541 536.34875342 114.29856587 C521.54682472 114.3249216 506.74500378 114.32260193 491.94306478 114.30817131 C478.98983822 114.29560468 466.0366512 114.29230481 453.0834198 114.29828453 C451.79572128 114.29885742 451.79572128 114.29885742 450.48200864 114.29944188 C446.99741407 114.30099852 443.51281951 114.30259051 440.02822498 114.3042407 C407.32499537 114.31954346 374.62183448 114.30565611 341.91861548 114.27875621 C312.84939844 114.25502731 283.78029091 114.25715041 254.71107483 114.28106117 C222.06852633 114.30782127 189.42603859 114.3184583 156.78348064 114.30299985 C153.30515227 114.30139621 149.82682388 114.29983201 146.34849548 114.29828453 C145.4920118 114.29788914 144.63552812 114.29749376 143.75309039 114.29708639 C130.80646155 114.29139361 117.85987655 114.29806045 104.91325378 114.3106823 C90.19566503 114.32495894 75.47820112 114.32144658 60.76062799 114.29427858 C52.51873915 114.27956722 44.2771205 114.27868143 36.03523852 114.29750945 C29.89122285 114.30999981 23.74752796 114.29651079 17.60355175 114.27263658 C15.11036255 114.26702537 12.61713742 114.26995055 10.1239711 114.28201552 C6.74878873 114.2971029 3.37510268 114.28174736 0 114.25841141 C-1.4701948 114.27597015 -1.4701948 114.27597015 -2.97009051 114.29388362 C-7.60358134 114.22934392 -9.62180786 114.14159516 -13.38746965 111.22799671 C-15.35088336 108.53761639 -15.91073226 107.4181958 -15.91896057 104.15130043 C-15.93305969 103.28499504 -15.94715881 102.41868965 -15.96168518 101.52613258 C-15.95156403 100.58883812 -15.94144287 99.65154366 -15.93101501 98.68584633 C-15.93977661 97.68852989 -15.94853821 96.69121346 -15.95756531 95.66367531 C-15.97955287 92.3704915 -15.96500799 89.07865291 -15.94810486 85.7854557 C-15.95147315 83.49529195 -15.95632588 81.20512994 -15.96260071 78.91497231 C-15.96997121 74.1165813 -15.95926021 69.31865585 -15.93589783 64.52031898 C-15.90741066 58.36963533 -15.92381358 52.22004251 -15.95376015 46.06939888 C-15.97182789 41.34073098 -15.96607733 36.6123217 -15.95312119 31.88364601 C-15.94978576 29.61583261 -15.95387899 27.34799572 -15.96551895 25.08020973 C-15.97821837 21.9103622 -15.95886152 18.74228104 -15.93101501 15.57256508 C-15.94113617 14.63527061 -15.95125732 13.69797615 -15.96168518 12.73227882 C-15.94758606 11.86597343 -15.93348694 10.99966805 -15.91896057 10.10711098 C-15.91707544 9.35865662 -15.91519032 8.61020226 -15.91324806 7.83906746 C-13.61030548 -0.24920116 -7.00332808 -0.08364175 0 0 Z " fill="#FDE6FA" transform="translate(779.2840423583984,508.37079429626465)"/>
<path d="M0 0 C1.78358705 -0.01169993 1.78358705 -0.01169993 3.60320616 -0.02363622 C6.9006176 -0.04013278 10.19660557 -0.03419329 13.49393058 -0.01870513 C17.05094033 -0.00739772 20.60782519 -0.02485123 24.16481018 -0.03860474 C31.13159443 -0.06084837 38.09810949 -0.05603107 45.06490433 -0.04154153 C50.72647381 -0.03025366 56.38796779 -0.02871642 62.04954529 -0.03416061 C62.85505434 -0.03492678 63.6605634 -0.03569294 64.49048182 -0.03648233 C66.12681252 -0.03808094 67.76314319 -0.039702 69.39947385 -0.04134528 C84.74659912 -0.05560607 100.09357512 -0.03920492 115.44067591 -0.01234345 C128.61177049 0.00999566 141.78264475 0.00611562 154.95373535 -0.01693726 C170.24559613 -0.04368948 185.53732604 -0.05423275 200.82920694 -0.03887594 C202.45954798 -0.03728318 204.08988903 -0.03571132 205.7202301 -0.03416061 C206.92349649 -0.03300355 206.92349649 -0.03300355 208.15107128 -0.03182311 C213.80642951 -0.02750436 219.46170479 -0.0347964 225.11705017 -0.04655838 C232.00825795 -0.06057553 238.89918093 -0.05680022 245.79035604 -0.03015466 C249.30703239 -0.01700557 252.82323377 -0.01188194 256.33990669 -0.02840042 C260.15013205 -0.04602722 263.95957813 -0.02499404 267.76977539 0 C268.88406654 -0.01115361 269.99835769 -0.02230722 271.14641523 -0.03379881 C278.57585401 0.06112202 278.57585401 0.06112202 282.57114983 2.89473152 C284.39309139 5.64731231 285.01164834 6.87401675 285.01980591 10.11282349 C285.03390503 10.97912888 285.04800415 11.84543427 285.06253052 12.73799133 C285.04734879 14.14393303 285.04734879 14.14393303 285.03186035 15.57827759 C285.04500275 17.07425224 285.04500275 17.07425224 285.05841064 18.60044861 C285.08039821 21.89363241 285.06585333 25.18547101 285.0489502 28.47866821 C285.05231849 30.76883197 285.05717122 33.05899398 285.06344604 35.34915161 C285.07081655 40.14754261 285.06010555 44.94546806 285.03674316 49.74380493 C285.008256 55.89448859 285.02465892 62.0440814 285.05460548 68.19472504 C285.07267323 72.92339294 285.06692267 77.65180221 285.05396652 82.38047791 C285.0506311 84.64829131 285.05472433 86.9161282 285.06636429 89.18391418 C285.07906371 92.35376172 285.05970685 95.52184288 285.03186035 98.69155884 C285.04198151 99.6288533 285.05210266 100.56614777 285.06253052 101.53184509 C285.0484314 102.39815048 285.03433228 103.26445587 285.01980591 104.15701294 C285.01792078 104.9054673 285.01603565 105.65392166 285.0140934 106.42505646 C283.96367914 110.11426379 282.51932495 111.411861 279.3848877 113.63491821 C275.51658185 114.37905459 271.6988454 114.30916484 267.76977539 114.26983643 C266.58071736 114.27763638 265.39165933 114.28543633 264.16656923 114.29347265 C260.86915779 114.3099692 257.57316982 114.30402972 254.27584481 114.28854156 C250.71883506 114.27723415 247.1619502 114.29468765 243.60496521 114.30844116 C236.63818096 114.3306848 229.6716659 114.32586749 222.70487106 114.31137796 C217.04330158 114.30009009 211.3818076 114.29855284 205.7202301 114.30399704 C204.91472105 114.3047632 204.10921199 114.30552937 203.27929357 114.30631875 C201.64296287 114.30791736 200.0066322 114.30953843 198.37030154 114.31118171 C183.02317627 114.3254425 167.67620027 114.30904135 152.32909948 114.28217988 C139.1580049 114.25984076 125.98713064 114.2637208 112.81604004 114.28677368 C97.52417926 114.3135259 82.23244935 114.32406917 66.94056845 114.30871236 C65.31022741 114.3071196 63.67988636 114.30554775 62.04954529 114.30399704 C60.84627891 114.30283997 60.84627891 114.30283997 59.61870411 114.30165953 C53.96334588 114.29734078 48.3080706 114.30463282 42.65272522 114.31639481 C35.76151744 114.33041196 28.87059446 114.32663664 21.97941935 114.29999109 C18.46274301 114.28684199 14.94654162 114.28171836 11.4298687 114.29823685 C7.61964334 114.31586364 3.81019726 114.29483046 0 114.26983643 C-1.67143672 114.28656684 -1.67143672 114.28656684 -3.37663984 114.30363524 C-10.80607862 114.20871441 -10.80607862 114.20871441 -14.80137444 111.3751049 C-16.623316 108.62252411 -17.24187295 107.39581968 -17.25003052 104.15701294 C-17.26412964 103.29070755 -17.27822876 102.42440216 -17.29275513 101.53184509 C-17.28263397 100.59455063 -17.27251282 99.65725616 -17.26208496 98.69155884 C-17.27084656 97.6942424 -17.27960815 96.69692596 -17.28863525 95.66938782 C-17.31062282 92.37620401 -17.29607794 89.08436542 -17.2791748 85.79116821 C-17.2825431 83.50100446 -17.28739583 81.21084245 -17.29367065 78.92068481 C-17.30104116 74.12229381 -17.29033016 69.32436836 -17.26696777 64.52603149 C-17.23848061 58.37534784 -17.25488353 52.22575502 -17.28483009 46.07511139 C-17.30289784 41.34644349 -17.29714728 36.61803421 -17.28419113 31.88935852 C-17.28085571 29.62154511 -17.28494894 27.35370823 -17.2965889 25.08592224 C-17.30928831 21.9160747 -17.28993146 18.74799355 -17.26208496 15.57827759 C-17.27220612 14.64098312 -17.28232727 13.70368866 -17.29275513 12.73799133 C-17.27865601 11.87168594 -17.26455688 11.00538055 -17.25003052 10.11282349 C-17.24814539 9.36436913 -17.24626026 8.61591476 -17.24431801 7.84477997 C-14.7891542 -0.77811169 -7.40666863 -0.07413779 0 0 Z " fill="#FDE6FA" transform="translate(780.6151123046875,763.3650817871094)"/>
<path d="M0 0 C1.78358705 -0.01169993 1.78358705 -0.01169993 3.60320616 -0.02363622 C6.9006176 -0.04013278 10.19660557 -0.03419329 13.49393058 -0.01870513 C17.05094033 -0.00739772 20.60782519 -0.02485123 24.16481018 -0.03860474 C31.13159443 -0.06084837 38.09810949 -0.05603107 45.06490433 -0.04154153 C50.72647381 -0.03025366 56.38796779 -0.02871642 62.04954529 -0.03416061 C62.85505434 -0.03492678 63.6605634 -0.03569294 64.49048182 -0.03648233 C66.12681252 -0.03808094 67.76314319 -0.039702 69.39947385 -0.04134528 C84.74659912 -0.05560607 100.09357512 -0.03920492 115.44067591 -0.01234345 C128.61177049 0.00999566 141.78264475 0.00611562 154.95373535 -0.01693726 C170.24559613 -0.04368948 185.53732604 -0.05423275 200.82920694 -0.03887594 C202.45954798 -0.03728318 204.08988903 -0.03571132 205.7202301 -0.03416061 C206.92349649 -0.03300355 206.92349649 -0.03300355 208.15107128 -0.03182311 C213.80642951 -0.02750436 219.46170479 -0.0347964 225.11705017 -0.04655838 C232.00825795 -0.06057553 238.89918093 -0.05680022 245.79035604 -0.03015466 C249.30703239 -0.01700557 252.82323377 -0.01188194 256.33990669 -0.02840042 C260.15013205 -0.04602722 263.95957813 -0.02499404 267.76977539 0 C268.88406654 -0.01115361 269.99835769 -0.02230722 271.14641523 -0.03379881 C278.57585401 0.06112202 278.57585401 0.06112202 282.57114983 2.89473152 C284.39309139 5.64731231 285.01164834 6.87401675 285.01980591 10.11282349 C285.03390503 10.97912888 285.04800415 11.84543427 285.06253052 12.73799133 C285.04734879 14.14393303 285.04734879 14.14393303 285.03186035 15.57827759 C285.04500275 17.07425224 285.04500275 17.07425224 285.05841064 18.60044861 C285.08039821 21.89363241 285.06585333 25.18547101 285.0489502 28.47866821 C285.05231849 30.76883197 285.05717122 33.05899398 285.06344604 35.34915161 C285.07081655 40.14754261 285.06010555 44.94546806 285.03674316 49.74380493 C285.008256 55.89448859 285.02465892 62.0440814 285.05460548 68.19472504 C285.07267323 72.92339294 285.06692267 77.65180221 285.05396652 82.38047791 C285.0506311 84.64829131 285.05472433 86.9161282 285.06636429 89.18391418 C285.07906371 92.35376172 285.05970685 95.52184288 285.03186035 98.69155884 C285.04198151 99.6288533 285.05210266 100.56614777 285.06253052 101.53184509 C285.0484314 102.39815048 285.03433228 103.26445587 285.01980591 104.15701294 C285.01792078 104.9054673 285.01603565 105.65392166 285.0140934 106.42505646 C283.96367914 110.11426379 282.51932495 111.411861 279.3848877 113.63491821 C275.51658185 114.37905459 271.6988454 114.30916484 267.76977539 114.26983643 C266.58071736 114.27763638 265.39165933 114.28543633 264.16656923 114.29347265 C260.86915779 114.3099692 257.57316982 114.30402972 254.27584481 114.28854156 C250.71883506 114.27723415 247.1619502 114.29468765 243.60496521 114.30844116 C236.63818096 114.3306848 229.6716659 114.32586749 222.70487106 114.31137796 C217.04330158 114.30009009 211.3818076 114.29855284 205.7202301 114.30399704 C204.91472105 114.3047632 204.10921199 114.30552937 203.27929357 114.30631875 C201.64296287 114.30791736 200.0066322 114.30953843 198.37030154 114.31118171 C183.02317627 114.3254425 167.67620027 114.30904135 152.32909948 114.28217988 C139.1580049 114.25984076 125.98713064 114.2637208 112.81604004 114.28677368 C97.52417926 114.3135259 82.23244935 114.32406917 66.94056845 114.30871236 C65.31022741 114.3071196 63.67988636 114.30554775 62.04954529 114.30399704 C60.84627891 114.30283997 60.84627891 114.30283997 59.61870411 114.30165953 C53.96334588 114.29734078 48.3080706 114.30463282 42.65272522 114.31639481 C35.76151744 114.33041196 28.87059446 114.32663664 21.97941935 114.29999109 C18.46274301 114.28684199 14.94654162 114.28171836 11.4298687 114.29823685 C7.61964334 114.31586364 3.81019726 114.29483046 0 114.26983643 C-1.67143672 114.28656684 -1.67143672 114.28656684 -3.37663984 114.30363524 C-10.80607862 114.20871441 -10.80607862 114.20871441 -14.80137444 111.3751049 C-16.623316 108.62252411 -17.24187295 107.39581968 -17.25003052 104.15701294 C-17.26412964 103.29070755 -17.27822876 102.42440216 -17.29275513 101.53184509 C-17.28263397 100.59455063 -17.27251282 99.65725616 -17.26208496 98.69155884 C-17.27084656 97.6942424 -17.27960815 96.69692596 -17.28863525 95.66938782 C-17.31062282 92.37620401 -17.29607794 89.08436542 -17.2791748 85.79116821 C-17.2825431 83.50100446 -17.28739583 81.21084245 -17.29367065 78.92068481 C-17.30104116 74.12229381 -17.29033016 69.32436836 -17.26696777 64.52603149 C-17.23848061 58.37534784 -17.25488353 52.22575502 -17.28483009 46.07511139 C-17.30289784 41.34644349 -17.29714728 36.61803421 -17.28419113 31.88935852 C-17.28085571 29.62154511 -17.28494894 27.35370823 -17.2965889 25.08592224 C-17.30928831 21.9160747 -17.28993146 18.74799355 -17.26208496 15.57827759 C-17.27220612 14.64098312 -17.28232727 13.70368866 -17.29275513 12.73799133 C-17.27865601 11.87168594 -17.26455688 11.00538055 -17.25003052 10.11282349 C-17.24814539 9.36436913 -17.24626026 8.61591476 -17.24431801 7.84477997 C-14.7891542 -0.77811169 -7.40666863 -0.07413779 0 0 Z " fill="#FDE6FA" transform="translate(780.6151123046875,636.3650817871094)"/>
<path d="M0 0 C1.78358705 -0.01169993 1.78358705 -0.01169993 3.60320616 -0.02363622 C6.9006176 -0.04013278 10.19660557 -0.03419329 13.49393058 -0.01870513 C17.05094033 -0.00739772 20.60782519 -0.02485123 24.16481018 -0.03860474 C31.13159443 -0.06084837 38.09810949 -0.05603107 45.06490433 -0.04154153 C50.72647381 -0.03025366 56.38796779 -0.02871642 62.04954529 -0.03416061 C62.85505434 -0.03492678 63.6605634 -0.03569294 64.49048182 -0.03648233 C66.12681252 -0.03808094 67.76314319 -0.039702 69.39947385 -0.04134528 C84.74659912 -0.05560607 100.09357512 -0.03920492 115.44067591 -0.01234345 C128.61177049 0.00999566 141.78264475 0.00611562 154.95373535 -0.01693726 C170.24559613 -0.04368948 185.53732604 -0.05423275 200.82920694 -0.03887594 C202.45954798 -0.03728318 204.08988903 -0.03571132 205.7202301 -0.03416061 C206.92349649 -0.03300355 206.92349649 -0.03300355 208.15107128 -0.03182311 C213.80642951 -0.02750436 219.46170479 -0.0347964 225.11705017 -0.04655838 C232.00825795 -0.06057553 238.89918093 -0.05680022 245.79035604 -0.03015466 C249.30703239 -0.01700557 252.82323377 -0.01188194 256.33990669 -0.02840042 C260.15013205 -0.04602722 263.95957813 -0.02499404 267.76977539 0 C268.88406654 -0.01115361 269.99835769 -0.02230722 271.14641523 -0.03379881 C278.57585401 0.06112202 278.57585401 0.06112202 282.57114983 2.89473152 C284.39309139 5.64731231 285.01164834 6.87401675 285.01980591 10.11282349 C285.03390503 10.97912888 285.04800415 11.84543427 285.06253052 12.73799133 C285.04734879 14.14393303 285.04734879 14.14393303 285.03186035 15.57827759 C285.04500275 17.07425224 285.04500275 17.07425224 285.05841064 18.60044861 C285.08039821 21.89363241 285.06585333 25.18547101 285.0489502 28.47866821 C285.05231849 30.76883197 285.05717122 33.05899398 285.06344604 35.34915161 C285.07081655 40.14754261 285.06010555 44.94546806 285.03674316 49.74380493 C285.008256 55.89448859 285.02465892 62.0440814 285.05460548 68.19472504 C285.07267323 72.92339294 285.06692267 77.65180221 285.05396652 82.38047791 C285.0506311 84.64829131 285.05472433 86.9161282 285.06636429 89.18391418 C285.07906371 92.35376172 285.05970685 95.52184288 285.03186035 98.69155884 C285.04198151 99.6288533 285.05210266 100.56614777 285.06253052 101.53184509 C285.0484314 102.39815048 285.03433228 103.26445587 285.01980591 104.15701294 C285.01792078 104.9054673 285.01603565 105.65392166 285.0140934 106.42505646 C283.96367914 110.11426379 282.51932495 111.411861 279.3848877 113.63491821 C275.51658185 114.37905459 271.6988454 114.30916484 267.76977539 114.26983643 C266.58071736 114.27763638 265.39165933 114.28543633 264.16656923 114.29347265 C260.86915779 114.3099692 257.57316982 114.30402972 254.27584481 114.28854156 C250.71883506 114.27723415 247.1619502 114.29468765 243.60496521 114.30844116 C236.63818096 114.3306848 229.6716659 114.32586749 222.70487106 114.31137796 C217.04330158 114.30009009 211.3818076 114.29855284 205.7202301 114.30399704 C204.91472105 114.3047632 204.10921199 114.30552937 203.27929357 114.30631875 C201.64296287 114.30791736 200.0066322 114.30953843 198.37030154 114.31118171 C183.02317627 114.3254425 167.67620027 114.30904135 152.32909948 114.28217988 C139.1580049 114.25984076 125.98713064 114.2637208 112.81604004 114.28677368 C97.52417926 114.3135259 82.23244935 114.32406917 66.94056845 114.30871236 C65.31022741 114.3071196 63.67988636 114.30554775 62.04954529 114.30399704 C60.84627891 114.30283997 60.84627891 114.30283997 59.61870411 114.30165953 C53.96334588 114.29734078 48.3080706 114.30463282 42.65272522 114.31639481 C35.76151744 114.33041196 28.87059446 114.32663664 21.97941935 114.29999109 C18.46274301 114.28684199 14.94654162 114.28171836 11.4298687 114.29823685 C7.61964334 114.31586364 3.81019726 114.29483046 0 114.26983643 C-1.67143672 114.28656684 -1.67143672 114.28656684 -3.37663984 114.30363524 C-10.80607862 114.20871441 -10.80607862 114.20871441 -14.80137444 111.3751049 C-16.623316 108.62252411 -17.24187295 107.39581968 -17.25003052 104.15701294 C-17.26412964 103.29070755 -17.27822876 102.42440216 -17.29275513 101.53184509 C-17.28263397 100.59455063 -17.27251282 99.65725616 -17.26208496 98.69155884 C-17.27084656 97.6942424 -17.27960815 96.69692596 -17.28863525 95.66938782 C-17.31062282 92.37620401 -17.29607794 89.08436542 -17.2791748 85.79116821 C-17.2825431 83.50100446 -17.28739583 81.21084245 -17.29367065 78.92068481 C-17.30104116 74.12229381 -17.29033016 69.32436836 -17.26696777 64.52603149 C-17.23848061 58.37534784 -17.25488353 52.22575502 -17.28483009 46.07511139 C-17.30289784 41.34644349 -17.29714728 36.61803421 -17.28419113 31.88935852 C-17.28085571 29.62154511 -17.28494894 27.35370823 -17.2965889 25.08592224 C-17.30928831 21.9160747 -17.28993146 18.74799355 -17.26208496 15.57827759 C-17.27220612 14.64098312 -17.28232727 13.70368866 -17.29275513 12.73799133 C-17.27865601 11.87168594 -17.26455688 11.00538055 -17.25003052 10.11282349 C-17.24814539 9.36436913 -17.24626026 8.61591476 -17.24431801 7.84477997 C-14.7891542 -0.77811169 -7.40666863 -0.07413779 0 0 Z " fill="#1F5C3B" transform="translate(1110.6151123046875,253.36508178710938)"/>
<path d="M0 0 C1.78358705 -0.01169993 1.78358705 -0.01169993 3.60320616 -0.02363622 C6.9006176 -0.04013278 10.19660557 -0.03419329 13.49393058 -0.01870513 C17.05094033 -0.00739772 20.60782519 -0.02485123 24.16481018 -0.03860474 C31.13159443 -0.06084837 38.09810949 -0.05603107 45.06490433 -0.04154153 C50.72647381 -0.03025366 56.38796779 -0.02871642 62.04954529 -0.03416061 C62.85505434 -0.03492678 63.6605634 -0.03569294 64.49048182 -0.03648233 C66.12681252 -0.03808094 67.76314319 -0.039702 69.39947385 -0.04134528 C84.74659912 -0.05560607 100.09357512 -0.03920492 115.44067591 -0.01234345 C128.61177049 0.00999566 141.78264475 0.00611562 154.95373535 -0.01693726 C170.24559613 -0.04368948 185.53732604 -0.05423275 200.82920694 -0.03887594 C202.45954798 -0.03728318 204.08988903 -0.03571132 205.7202301 -0.03416061 C206.92349649 -0.03300355 206.92349649 -0.03300355 208.15107128 -0.03182311 C213.80642951 -0.02750436 219.46170479 -0.0347964 225.11705017 -0.04655838 C232.00825795 -0.06057553 238.89918093 -0.05680022 245.79035604 -0.03015466 C249.30703239 -0.01700557 252.82323377 -0.01188194 256.33990669 -0.02840042 C260.15013205 -0.04602722 263.95957813 -0.02499404 267.76977539 0 C268.88406654 -0.01115361 269.99835769 -0.02230722 271.14641523 -0.03379881 C278.57585401 0.06112202 278.57585401 0.06112202 282.57114983 2.89473152 C284.39309139 5.64731231 285.01164834 6.87401675 285.01980591 10.11282349 C285.03390503 10.97912888 285.04800415 11.84543427 285.06253052 12.73799133 C285.04734879 14.14393303 285.04734879 14.14393303 285.03186035 15.57827759 C285.04500275 17.07425224 285.04500275 17.07425224 285.05841064 18.60044861 C285.08039821 21.89363241 285.06585333 25.18547101 285.0489502 28.47866821 C285.05231849 30.76883197 285.05717122 33.05899398 285.06344604 35.34915161 C285.07081655 40.14754261 285.06010555 44.94546806 285.03674316 49.74380493 C285.008256 55.89448859 285.02465892 62.0440814 285.05460548 68.19472504 C285.07267323 72.92339294 285.06692267 77.65180221 285.05396652 82.38047791 C285.0506311 84.64829131 285.05472433 86.9161282 285.06636429 89.18391418 C285.07906371 92.35376172 285.05970685 95.52184288 285.03186035 98.69155884 C285.04198151 99.6288533 285.05210266 100.56614777 285.06253052 101.53184509 C285.0484314 102.39815048 285.03433228 103.26445587 285.01980591 104.15701294 C285.01792078 104.9054673 285.01603565 105.65392166 285.0140934 106.42505646 C283.96367914 110.11426379 282.51932495 111.411861 279.3848877 113.63491821 C275.51658185 114.37905459 271.6988454 114.30916484 267.76977539 114.26983643 C266.58071736 114.27763638 265.39165933 114.28543633 264.16656923 114.29347265 C260.86915779 114.3099692 257.57316982 114.30402972 254.27584481 114.28854156 C250.71883506 114.27723415 247.1619502 114.29468765 243.60496521 114.30844116 C236.63818096 114.3306848 229.6716659 114.32586749 222.70487106 114.31137796 C217.04330158 114.30009009 211.3818076 114.29855284 205.7202301 114.30399704 C204.91472105 114.3047632 204.10921199 114.30552937 203.27929357 114.30631875 C201.64296287 114.30791736 200.0066322 114.30953843 198.37030154 114.31118171 C183.02317627 114.3254425 167.67620027 114.30904135 152.32909948 114.28217988 C139.1580049 114.25984076 125.98713064 114.2637208 112.81604004 114.28677368 C97.52417926 114.3135259 82.23244935 114.32406917 66.94056845 114.30871236 C65.31022741 114.3071196 63.67988636 114.30554775 62.04954529 114.30399704 C60.84627891 114.30283997 60.84627891 114.30283997 59.61870411 114.30165953 C53.96334588 114.29734078 48.3080706 114.30463282 42.65272522 114.31639481 C35.76151744 114.33041196 28.87059446 114.32663664 21.97941935 114.29999109 C18.46274301 114.28684199 14.94654162 114.28171836 11.4298687 114.29823685 C7.61964334 114.31586364 3.81019726 114.29483046 0 114.26983643 C-1.67143672 114.28656684 -1.67143672 114.28656684 -3.37663984 114.30363524 C-10.80607862 114.20871441 -10.80607862 114.20871441 -14.80137444 111.3751049 C-16.623316 108.62252411 -17.24187295 107.39581968 -17.25003052 104.15701294 C-17.26412964 103.29070755 -17.27822876 102.42440216 -17.29275513 101.53184509 C-17.28263397 100.59455063 -17.27251282 99.65725616 -17.26208496 98.69155884 C-17.27084656 97.6942424 -17.27960815 96.69692596 -17.28863525 95.66938782 C-17.31062282 92.37620401 -17.29607794 89.08436542 -17.2791748 85.79116821 C-17.2825431 83.50100446 -17.28739583 81.21084245 -17.29367065 78.92068481 C-17.30104116 74.12229381 -17.29033016 69.32436836 -17.26696777 64.52603149 C-17.23848061 58.37534784 -17.25488353 52.22575502 -17.28483009 46.07511139 C-17.30289784 41.34644349 -17.29714728 36.61803421 -17.28419113 31.88935852 C-17.28085571 29.62154511 -17.28494894 27.35370823 -17.2965889 25.08592224 C-17.30928831 21.9160747 -17.28993146 18.74799355 -17.26208496 15.57827759 C-17.27220612 14.64098312 -17.28232727 13.70368866 -17.29275513 12.73799133 C-17.27865601 11.87168594 -17.26455688 11.00538055 -17.25003052 10.11282349 C-17.24814539 9.36436913 -17.24626026 8.61591476 -17.24431801 7.84477997 C-14.7891542 -0.77811169 -7.40666863 -0.07413779 0 0 Z " fill="#B0F2C3" transform="translate(780.6151123046875,253.36508178710938)"/>
<path d="M0 0 C1.78358705 -0.01169993 1.78358705 -0.01169993 3.60320616 -0.02363622 C6.9006176 -0.04013278 10.19660557 -0.03419329 13.49393058 -0.01870513 C17.05094033 -0.00739772 20.60782519 -0.02485123 24.16481018 -0.03860474 C31.13159443 -0.06084837 38.09810949 -0.05603107 45.06490433 -0.04154153 C50.72647381 -0.03025366 56.38796779 -0.02871642 62.04954529 -0.03416061 C62.85505434 -0.03492678 63.6605634 -0.03569294 64.49048182 -0.03648233 C66.12681252 -0.03808094 67.76314319 -0.039702 69.39947385 -0.04134528 C84.74659912 -0.05560607 100.09357512 -0.03920492 115.44067591 -0.01234345 C128.61177049 0.00999566 141.78264475 0.00611562 154.95373535 -0.01693726 C170.24559613 -0.04368948 185.53732604 -0.05423275 200.82920694 -0.03887594 C202.45954798 -0.03728318 204.08988903 -0.03571132 205.7202301 -0.03416061 C206.92349649 -0.03300355 206.92349649 -0.03300355 208.15107128 -0.03182311 C213.80642951 -0.02750436 219.46170479 -0.0347964 225.11705017 -0.04655838 C232.00825795 -0.06057553 238.89918093 -0.05680022 245.79035604 -0.03015466 C249.30703239 -0.01700557 252.82323377 -0.01188194 256.33990669 -0.02840042 C260.15013205 -0.04602722 263.95957813 -0.02499404 267.76977539 0 C268.88406654 -0.01115361 269.99835769 -0.02230722 271.14641523 -0.03379881 C278.57585401 0.06112202 278.57585401 0.06112202 282.57114983 2.89473152 C284.39309139 5.64731231 285.01164834 6.87401675 285.01980591 10.11282349 C285.03390503 10.97912888 285.04800415 11.84543427 285.06253052 12.73799133 C285.04734879 14.14393303 285.04734879 14.14393303 285.03186035 15.57827759 C285.04500275 17.07425224 285.04500275 17.07425224 285.05841064 18.60044861 C285.08039821 21.89363241 285.06585333 25.18547101 285.0489502 28.47866821 C285.05231849 30.76883197 285.05717122 33.05899398 285.06344604 35.34915161 C285.07081655 40.14754261 285.06010555 44.94546806 285.03674316 49.74380493 C285.008256 55.89448859 285.02465892 62.0440814 285.05460548 68.19472504 C285.07267323 72.92339294 285.06692267 77.65180221 285.05396652 82.38047791 C285.0506311 84.64829131 285.05472433 86.9161282 285.06636429 89.18391418 C285.07906371 92.35376172 285.05970685 95.52184288 285.03186035 98.69155884 C285.04198151 99.6288533 285.05210266 100.56614777 285.06253052 101.53184509 C285.0484314 102.39815048 285.03433228 103.26445587 285.01980591 104.15701294 C285.01792078 104.9054673 285.01603565 105.65392166 285.0140934 106.42505646 C283.96367914 110.11426379 282.51932495 111.411861 279.3848877 113.63491821 C275.51658185 114.37905459 271.6988454 114.30916484 267.76977539 114.26983643 C266.58071736 114.27763638 265.39165933 114.28543633 264.16656923 114.29347265 C260.86915779 114.3099692 257.57316982 114.30402972 254.27584481 114.28854156 C250.71883506 114.27723415 247.1619502 114.29468765 243.60496521 114.30844116 C236.63818096 114.3306848 229.6716659 114.32586749 222.70487106 114.31137796 C217.04330158 114.30009009 211.3818076 114.29855284 205.7202301 114.30399704 C204.91472105 114.3047632 204.10921199 114.30552937 203.27929357 114.30631875 C201.64296287 114.30791736 200.0066322 114.30953843 198.37030154 114.31118171 C183.02317627 114.3254425 167.67620027 114.30904135 152.32909948 114.28217988 C139.1580049 114.25984076 125.98713064 114.2637208 112.81604004 114.28677368 C97.52417926 114.3135259 82.23244935 114.32406917 66.94056845 114.30871236 C65.31022741 114.3071196 63.67988636 114.30554775 62.04954529 114.30399704 C60.84627891 114.30283997 60.84627891 114.30283997 59.61870411 114.30165953 C53.96334588 114.29734078 48.3080706 114.30463282 42.65272522 114.31639481 C35.76151744 114.33041196 28.87059446 114.32663664 21.97941935 114.29999109 C18.46274301 114.28684199 14.94654162 114.28171836 11.4298687 114.29823685 C7.61964334 114.31586364 3.81019726 114.29483046 0 114.26983643 C-1.67143672 114.28656684 -1.67143672 114.28656684 -3.37663984 114.30363524 C-10.80607862 114.20871441 -10.80607862 114.20871441 -14.80137444 111.3751049 C-16.623316 108.62252411 -17.24187295 107.39581968 -17.25003052 104.15701294 C-17.26412964 103.29070755 -17.27822876 102.42440216 -17.29275513 101.53184509 C-17.28263397 100.59455063 -17.27251282 99.65725616 -17.26208496 98.69155884 C-17.27084656 97.6942424 -17.27960815 96.69692596 -17.28863525 95.66938782 C-17.31062282 92.37620401 -17.29607794 89.08436542 -17.2791748 85.79116821 C-17.2825431 83.50100446 -17.28739583 81.21084245 -17.29367065 78.92068481 C-17.30104116 74.12229381 -17.29033016 69.32436836 -17.26696777 64.52603149 C-17.23848061 58.37534784 -17.25488353 52.22575502 -17.28483009 46.07511139 C-17.30289784 41.34644349 -17.29714728 36.61803421 -17.28419113 31.88935852 C-17.28085571 29.62154511 -17.28494894 27.35370823 -17.2965889 25.08592224 C-17.30928831 21.9160747 -17.28993146 18.74799355 -17.26208496 15.57827759 C-17.27220612 14.64098312 -17.28232727 13.70368866 -17.29275513 12.73799133 C-17.27865601 11.87168594 -17.26455688 11.00538055 -17.25003052 10.11282349 C-17.24814539 9.36436913 -17.24626026 8.61591476 -17.24431801 7.84477997 C-14.7891542 -0.77811169 -7.40666863 -0.07413779 0 0 Z " fill="#B0F2C3" transform="translate(451.6151123046875,253.36508178710938)"/>
<path d="M0 0 C1.78358705 -0.01169993 1.78358705 -0.01169993 3.60320616 -0.02363622 C6.9006176 -0.04013278 10.19660557 -0.03419329 13.49393058 -0.01870513 C17.05094033 -0.00739772 20.60782519 -0.02485123 24.16481018 -0.03860474 C31.13159443 -0.06084837 38.09810949 -0.05603107 45.06490433 -0.04154153 C50.72647381 -0.03025366 56.38796779 -0.02871642 62.04954529 -0.03416061 C62.85505434 -0.03492678 63.6605634 -0.03569294 64.49048182 -0.03648233 C66.12681252 -0.03808094 67.76314319 -0.039702 69.39947385 -0.04134528 C84.74659912 -0.05560607 100.09357512 -0.03920492 115.44067591 -0.01234345 C128.61177049 0.00999566 141.78264475 0.00611562 154.95373535 -0.01693726 C170.24559613 -0.04368948 185.53732604 -0.05423275 200.82920694 -0.03887594 C202.45954798 -0.03728318 204.08988903 -0.03571132 205.7202301 -0.03416061 C206.92349649 -0.03300355 206.92349649 -0.03300355 208.15107128 -0.03182311 C213.80642951 -0.02750436 219.46170479 -0.0347964 225.11705017 -0.04655838 C232.00825795 -0.06057553 238.89918093 -0.05680022 245.79035604 -0.03015466 C249.30703239 -0.01700557 252.82323377 -0.01188194 256.33990669 -0.02840042 C260.15013205 -0.04602722 263.95957813 -0.02499404 267.76977539 0 C268.88406654 -0.01115361 269.99835769 -0.02230722 271.14641523 -0.03379881 C278.57585401 0.06112202 278.57585401 0.06112202 282.57114983 2.89473152 C284.39309139 5.64731231 285.01164834 6.87401675 285.01980591 10.11282349 C285.03390503 10.97912888 285.04800415 11.84543427 285.06253052 12.73799133 C285.04734879 14.14393303 285.04734879 14.14393303 285.03186035 15.57827759 C285.04500275 17.07425224 285.04500275 17.07425224 285.05841064 18.60044861 C285.08039821 21.89363241 285.06585333 25.18547101 285.0489502 28.47866821 C285.05231849 30.76883197 285.05717122 33.05899398 285.06344604 35.34915161 C285.07081655 40.14754261 285.06010555 44.94546806 285.03674316 49.74380493 C285.008256 55.89448859 285.02465892 62.0440814 285.05460548 68.19472504 C285.07267323 72.92339294 285.06692267 77.65180221 285.05396652 82.38047791 C285.0506311 84.64829131 285.05472433 86.9161282 285.06636429 89.18391418 C285.07906371 92.35376172 285.05970685 95.52184288 285.03186035 98.69155884 C285.04198151 99.6288533 285.05210266 100.56614777 285.06253052 101.53184509 C285.0484314 102.39815048 285.03433228 103.26445587 285.01980591 104.15701294 C285.01792078 104.9054673 285.01603565 105.65392166 285.0140934 106.42505646 C283.96367914 110.11426379 282.51932495 111.411861 279.3848877 113.63491821 C275.51658185 114.37905459 271.6988454 114.30916484 267.76977539 114.26983643 C266.58071736 114.27763638 265.39165933 114.28543633 264.16656923 114.29347265 C260.86915779 114.3099692 257.57316982 114.30402972 254.27584481 114.28854156 C250.71883506 114.27723415 247.1619502 114.29468765 243.60496521 114.30844116 C236.63818096 114.3306848 229.6716659 114.32586749 222.70487106 114.31137796 C217.04330158 114.30009009 211.3818076 114.29855284 205.7202301 114.30399704 C204.91472105 114.3047632 204.10921199 114.30552937 203.27929357 114.30631875 C201.64296287 114.30791736 200.0066322 114.30953843 198.37030154 114.31118171 C183.02317627 114.3254425 167.67620027 114.30904135 152.32909948 114.28217988 C139.1580049 114.25984076 125.98713064 114.2637208 112.81604004 114.28677368 C97.52417926 114.3135259 82.23244935 114.32406917 66.94056845 114.30871236 C65.31022741 114.3071196 63.67988636 114.30554775 62.04954529 114.30399704 C60.84627891 114.30283997 60.84627891 114.30283997 59.61870411 114.30165953 C53.96334588 114.29734078 48.3080706 114.30463282 42.65272522 114.31639481 C35.76151744 114.33041196 28.87059446 114.32663664 21.97941935 114.29999109 C18.46274301 114.28684199 14.94654162 114.28171836 11.4298687 114.29823685 C7.61964334 114.31586364 3.81019726 114.29483046 0 114.26983643 C-1.67143672 114.28656684 -1.67143672 114.28656684 -3.37663984 114.30363524 C-10.80607862 114.20871441 -10.80607862 114.20871441 -14.80137444 111.3751049 C-16.623316 108.62252411 -17.24187295 107.39581968 -17.25003052 104.15701294 C-17.26412964 103.29070755 -17.27822876 102.42440216 -17.29275513 101.53184509 C-17.28263397 100.59455063 -17.27251282 99.65725616 -17.26208496 98.69155884 C-17.27084656 97.6942424 -17.27960815 96.69692596 -17.28863525 95.66938782 C-17.31062282 92.37620401 -17.29607794 89.08436542 -17.2791748 85.79116821 C-17.2825431 83.50100446 -17.28739583 81.21084245 -17.29367065 78.92068481 C-17.30104116 74.12229381 -17.29033016 69.32436836 -17.26696777 64.52603149 C-17.23848061 58.37534784 -17.25488353 52.22575502 -17.28483009 46.07511139 C-17.30289784 41.34644349 -17.29714728 36.61803421 -17.28419113 31.88935852 C-17.28085571 29.62154511 -17.28494894 27.35370823 -17.2965889 25.08592224 C-17.30928831 21.9160747 -17.28993146 18.74799355 -17.26208496 15.57827759 C-17.27220612 14.64098312 -17.28232727 13.70368866 -17.29275513 12.73799133 C-17.27865601 11.87168594 -17.26455688 11.00538055 -17.25003052 10.11282349 C-17.24814539 9.36436913 -17.24626026 8.61591476 -17.24431801 7.84477997 C-14.7891542 -0.77811169 -7.40666863 -0.07413779 0 0 Z " fill="#B0F2C3" transform="translate(122.6151123046875,253.36508178710938)"/>
</svg>
